# xmcd
#
# Track frame offsets: 
#        150
#        17129
#        30469
#        46135
#        63336
#        82432
#        96387
#        115612
#        129405
#        147744
#        165281
#
# Disc length: 2388 seconds
#
# Revision: 0
# Processed by: cddbd v1.5.2PL0 Copyright (c) Steve Scherf et al.
# Submitted via: ExactAudioCopy v0.99pb5
#
DISCID=9109520b
DTITLE=Austin Lucas - Collection
DYEAR=2010
DGENRE=Alt-Country
TTITLE0=Go West
TTITLE1=Life I've Got
TTITLE2=I Know I Know
TTITLE3=She Did
TTITLE4=Singing Man
TTITLE5=Wild Boar
TTITLE6=To Daddy
TTITLE7=Oakland Skyline
TTITLE8=My Momma's Son
TTITLE9=Sweeter Than the Flowers
TTITLE10=Easy Listening
EXTD=
EXTT0=
EXTT1=
EXTT2=
EXTT3=
EXTT4=
EXTT5=
EXTT6=
EXTT7=
EXTT8=
EXTT9=
EXTT10=
PLAYORDER=
